<svg width="110" height="110" viewBox="0 0 110 110" fill="none" xmlns="http://www.w3.org/2000/svg">
<circle cx="55" cy="55" r="53" stroke="white" stroke-width="4"/>
<g filter="url(#filter0_d_181_683)">
<circle cx="54.9999" cy="55.0001" r="31.9355" fill="white"/>
</g>
<path d="M64.1453 54.134C64.8119 54.5189 64.8119 55.4811 64.1453 55.866L51.1775 63.353C50.5109 63.7379 49.6775 63.2568 49.6775 62.4869L49.6775 47.5131C49.6775 46.7433 50.5109 46.2622 51.1775 46.6471L64.1453 54.134Z" fill="#6346FA"/>
<path d="M36.371 18.6843C23.2022 25.4532 14.1936 39.1746 14.1936 55C14.1936 70.8254 23.2022 84.5467 36.371 91.3156" stroke="#222222" stroke-width="2"/>
<path d="M45.9823 19.7504C44.9649 20.0286 44.0263 19.9223 43.1665 19.4317C42.3042 18.9321 41.7352 18.1782 41.4595 17.1698C41.1839 16.1615 41.2913 15.2274 41.7819 14.3676C42.2701 13.4988 43.0228 12.9253 44.0401 12.6471C44.7063 12.465 45.3493 12.4633 45.9691 12.6422C46.5864 12.8121 47.0995 13.1314 47.5083 13.6002L46.6775 14.4369C46.408 14.1236 46.0637 13.9081 45.6445 13.7905C45.2343 13.6704 44.8041 13.6719 44.354 13.795C43.6787 13.9796 43.1743 14.3643 42.8407 14.9489C42.5161 15.5312 42.4473 16.1644 42.6344 16.8486C42.819 17.5238 43.1992 18.0295 43.7749 18.3655C44.3596 18.6992 44.9895 18.7737 45.6647 18.589C46.1149 18.466 46.4917 18.2517 46.7952 17.9461C47.0962 17.6316 47.292 17.2684 47.3826 16.8566L48.5407 17.1641C48.3979 17.774 48.1007 18.3149 47.6491 18.7867C47.1951 19.2495 46.6395 19.5707 45.9823 19.7504Z" fill="#222222"/>
<path d="M59.9547 11.5701L59.7334 18.5666L58.544 18.529L58.7047 13.4495L56.3665 16.9614L56.2126 16.9565L54.101 13.3039L53.9403 18.3834L52.7369 18.3453L52.9582 11.3488L54.2596 11.39L56.3445 14.9997L58.6534 11.529L59.9547 11.5701Z" fill="#222222"/>
<path d="M70.153 20.6357C69.2392 21.0653 68.2982 21.1091 67.3302 20.7673C66.3621 20.4254 65.6573 19.8004 65.2158 18.8923C64.7832 17.9872 64.7393 17.0463 65.0843 16.0694C65.4292 15.0925 66.0542 14.3877 66.9593 13.955C67.8731 13.5255 68.8141 13.4816 69.7822 13.8235C70.7502 14.1653 71.455 14.7903 71.8965 15.6985C72.338 16.6066 72.3862 17.5491 72.0413 18.526C71.6963 19.5029 71.0669 20.2061 70.153 20.6357ZM67.7264 19.6452C68.3864 19.8782 69.0201 19.8496 69.6275 19.5593C70.2348 19.2689 70.6566 18.7893 70.8928 18.1205C71.1289 17.4516 71.1019 16.8135 70.8115 16.2062C70.5212 15.5989 70.046 15.1786 69.3859 14.9456C68.7347 14.7156 68.1054 14.7458 67.498 15.0361C66.8907 15.3265 66.4689 15.8061 66.2328 16.4749C65.9966 17.1438 66.0237 17.7819 66.314 18.3892C66.6043 18.9965 67.0751 19.4152 67.7264 19.6452Z" fill="#222222"/>
<path d="M82.6246 21.1883L81.942 22.1459L80.004 20.7644L76.6234 25.5068L75.6316 24.7997L79.0122 20.0574L77.0628 18.6677L77.7454 17.7101L82.6246 21.1883Z" fill="#222222"/>
<path d="M89.7644 28.4368C90.367 29.2096 90.5974 30.0893 90.4554 31.0759C90.3207 32.0567 89.8486 32.8628 89.039 33.4941C88.2294 34.1255 87.3289 34.3898 86.3374 34.2871C85.3534 34.1787 84.56 33.738 83.9574 32.9652C83.2457 32.0526 83.0676 31.073 83.4232 30.0264L80.2657 32.4886L79.5167 31.5281L87.2447 25.5017L87.9937 26.4622L87.0443 27.2025C88.146 27.1127 89.0527 27.5242 89.7644 28.4368ZM84.79 32.1206C85.2205 32.6726 85.7697 32.9899 86.4378 33.0726C87.1132 33.1495 87.7306 32.9699 88.29 32.5337C88.8494 32.0975 89.1704 31.5453 89.253 30.8772C89.343 30.2034 89.1728 29.5905 88.7423 29.0385C88.3061 28.4792 87.7503 28.161 87.0749 28.0841C86.4068 28.0015 85.7931 28.1783 85.2337 28.6145C84.6744 29.0507 84.3497 29.6057 84.2597 30.2795C84.177 30.9475 84.3538 31.5613 84.79 32.1206Z" fill="#222222"/>
<path d="M91.2783 39.2056C90.734 39.5364 90.3776 39.9718 90.2092 40.5118C90.0441 41.0606 90.0766 41.6457 90.3066 42.2672C90.6273 43.1337 91.18 43.6457 91.9648 43.8031L91.7729 44.9788C90.5474 44.7059 89.6965 43.9261 89.2202 42.6394C88.8347 41.5978 88.8443 40.6289 89.2491 39.7327C89.6658 38.842 90.3731 38.212 91.371 37.8426C92.3601 37.4766 93.3011 37.4915 94.1941 37.8875C95.0871 38.2835 95.7214 38.9892 96.0972 40.0046C96.4536 40.9674 96.4022 41.8772 95.943 42.7338C95.4958 43.596 94.7951 44.2036 93.841 44.5567C93.6747 44.6183 93.4992 44.6683 93.3144 44.7069L91.2783 39.2056ZM95.0206 40.403C94.7938 39.7903 94.4309 39.3474 93.9317 39.0744C93.4414 38.7981 92.8895 38.7187 92.2761 38.8362L93.8992 43.2215C94.485 42.8952 94.867 42.4752 95.0451 41.9614C95.2231 41.4477 95.215 40.9282 95.0206 40.403Z" fill="#222222"/>
<path d="M98.6543 54.6002L97.4816 54.6879L97.3041 52.3145L91.4963 52.7488L91.4055 51.5342L97.2133 51.0999L97.0348 48.7126L98.2076 48.6249L98.6543 54.6002Z" fill="#222222"/>
<path d="M95.2159 63.2019C95.0861 63.8898 94.7724 64.4194 94.2748 64.7909C93.7847 65.1733 93.2141 65.3031 92.5629 65.1802C91.9118 65.0572 91.4231 64.7275 91.097 64.1911C90.7782 63.6655 90.6838 63.0588 90.8136 62.3709L91.3616 59.4682L98.2401 60.7666L98.0142 61.9635L95.5379 61.496L95.2159 63.2019ZM91.928 62.5813C91.8639 62.9206 91.9065 63.2231 92.0559 63.4887C92.2126 63.7653 92.4561 63.9347 92.7863 63.997C93.1164 64.0594 93.4049 63.9903 93.6517 63.79C93.8967 63.5988 94.0513 63.3335 94.1153 62.9942L94.4373 61.2883L92.25 60.8754L91.928 62.5813Z" fill="#222222"/>
<path d="M85.9505 80.6504C85.2803 81.046 84.6316 81.0086 84.0045 80.5381C83.5416 80.1908 83.2785 79.7484 83.2151 79.2107C83.1536 78.6862 83.3385 78.1365 83.7697 77.5616L85.8702 74.762L91.4695 78.9628L89.5371 81.5385C89.117 82.0985 88.6503 82.4251 88.137 82.5183C87.6311 82.6172 87.1504 82.4958 86.695 82.1541C86.1575 81.7508 85.9093 81.2496 85.9505 80.6504ZM88.6972 80.8384L89.8819 79.2594L88.4149 78.1588L87.2302 79.7378C86.8045 80.3052 86.8418 80.7765 87.342 81.1518C87.8198 81.5103 88.2716 81.4058 88.6972 80.8384ZM84.6965 78.1694C84.4836 78.4531 84.3884 78.72 84.4107 78.9701C84.4275 79.2277 84.5591 79.449 84.8054 79.6338C85.0369 79.8074 85.2749 79.8635 85.5194 79.8019C85.7658 79.7534 85.9954 79.5873 86.2083 79.3036L87.5526 77.5118L86.0407 76.3776L84.6965 78.1694Z" fill="#222222"/>
<path d="M79.328 91.1751L78.5408 91.7588L74.3719 86.1356L75.3391 85.4186L78.2656 89.366L78.4543 83.109L79.2416 82.5253L83.4105 88.1485L82.4433 88.8656L79.5167 84.9181L79.328 91.1751Z" fill="#222222"/>
<path d="M64.7818 91.5344L63.8709 91.8561L62.8593 88.9914L63.9946 88.5905L64.6193 90.3595L69.5697 88.6114L68.945 86.8424L70.0803 86.4415L71.0919 89.3062L70.2866 89.5905C70.0693 90.3206 70.1456 91.2092 70.5154 92.2565L71.5969 95.3192L66.7257 97.0393L64.7818 91.5344ZM68.9797 90.052L65.9171 91.1335L67.4834 95.5691L70.084 94.6508L69.3801 92.6574C69.032 91.6717 68.8986 90.8033 68.9797 90.052Z" fill="#222222"/>
<path d="M58.8359 94.3575C58.689 93.7377 58.3847 93.2644 57.923 92.9377C57.4519 92.6114 56.8853 92.4618 56.2232 92.4889C55.3 92.5267 54.6425 92.8946 54.2507 93.5926L53.1915 93.0475C53.8291 91.9658 54.8333 91.3969 56.2042 91.3407C57.3139 91.2952 58.2326 91.6032 58.9603 92.2647C59.679 92.9358 60.0602 93.8029 60.1037 94.866C60.1469 95.9198 59.8424 96.8104 59.1903 97.5377C58.5382 98.265 57.6713 98.6508 56.5895 98.6951C55.5637 98.7371 54.7142 98.4076 54.0409 97.7066C53.3587 97.0153 52.9968 96.1614 52.9552 95.1449C52.9479 94.9677 52.9544 94.7853 52.9748 94.5976L58.8359 94.3575ZM56.5425 97.5481C57.1953 97.5213 57.7286 97.3127 58.1423 96.9221C58.5563 96.5408 58.8021 96.0403 58.8794 95.4206L54.2073 95.612C54.337 96.2699 54.6188 96.7628 55.0526 97.0907C55.4864 97.4185 55.983 97.571 56.5425 97.5481Z" fill="#222222"/>
<path d="M42.7252 90.4644C43.6009 89.9616 44.5351 89.8409 45.5279 90.1024C46.5207 90.3639 47.2742 90.9292 47.7885 91.7982C48.2938 92.6648 48.4144 93.599 48.1505 94.6008C47.8866 95.6027 47.3214 96.3562 46.4548 96.8614C45.5791 97.3643 44.6449 97.485 43.6521 97.2235C42.6593 96.962 41.9058 96.3967 41.3915 95.5277C40.8772 94.6587 40.752 93.7233 41.0159 92.7215C41.2798 91.7197 41.8496 90.9673 42.7252 90.4644ZM45.2248 91.2531C44.5479 91.0748 43.9186 91.1552 43.3371 91.4943C42.7555 91.8333 42.3744 92.3458 42.1937 93.0317C42.0131 93.7177 42.0922 94.3514 42.4313 94.933C42.7703 95.5145 43.2783 95.8944 43.9552 96.0727C44.6231 96.2487 45.2478 96.1671 45.8294 95.8281C46.4109 95.489 46.792 94.9765 46.9727 94.2906C47.1534 93.6046 47.0742 92.9709 46.7352 92.3894C46.3961 91.8078 45.8927 91.4291 45.2248 91.2531Z" fill="#222222"/>
<defs>
<filter id="filter0_d_181_683" x="9.06445" y="11.0646" width="91.8708" height="91.871" filterUnits="userSpaceOnUse" color-interpolation-filters="sRGB">
<feFlood flood-opacity="0" result="BackgroundImageFix"/>
<feColorMatrix in="SourceAlpha" type="matrix" values="0 0 0 0 0 0 0 0 0 0 0 0 0 0 0 0 0 0 127 0" result="hardAlpha"/>
<feOffset dy="2"/>
<feGaussianBlur stdDeviation="7"/>
<feComposite in2="hardAlpha" operator="out"/>
<feColorMatrix type="matrix" values="0 0 0 0 0 0 0 0 0 0 0 0 0 0 0 0 0 0 0.06 0"/>
<feBlend mode="normal" in2="BackgroundImageFix" result="effect1_dropShadow_181_683"/>
<feBlend mode="normal" in="SourceGraphic" in2="effect1_dropShadow_181_683" result="shape"/>
</filter>
</defs>
</svg>
