<svg width="169" height="298" viewBox="0 0 169 298" fill="none" xmlns="http://www.w3.org/2000/svg">
<g clip-path="url(#clip0_111_1004)">
<path d="M63.4238 257.807L53.1142 263.79L37.715 241.027L47.8941 235.044L63.4238 257.807Z" fill="#F8C1B9"/>
<path d="M52.7227 263.4L61.2053 253.124C61.4663 252.734 61.9883 252.604 62.3798 252.864L71.515 258.327C72.4285 258.848 72.6895 260.278 71.9065 261.189C68.9049 264.701 67.3389 266.262 63.5544 270.814C61.3358 273.546 56.8988 279.66 53.7667 283.432C50.6347 287.204 46.5891 284.342 47.6331 282.521C51.9397 274.066 52.0702 269.514 52.0702 265.351C52.0702 264.701 52.3312 263.921 52.7227 263.4Z" fill="#263238"/>
<path d="M48.9383 269.904C49.0688 269.904 49.0688 269.904 49.1993 269.904C50.8958 269.644 52.5923 266.782 53.5059 264.961C53.5059 264.831 53.5059 264.831 53.5059 264.701C53.5059 264.701 53.3754 264.571 53.2449 264.701C52.7229 264.961 47.8943 267.042 47.6333 268.603C47.6333 268.863 47.6333 269.124 47.8943 269.384C48.1553 269.644 48.5468 269.904 48.9383 269.904ZM52.8533 265.221C51.4178 267.693 50.1128 269.254 49.0688 269.384C48.6773 269.384 48.4163 269.384 48.1553 268.993C48.0248 268.863 48.0248 268.733 48.0248 268.603C48.1553 267.693 51.2873 266.002 52.8533 265.221Z" fill="#6346FA"/>
<path d="M49.4603 265.872C50.8958 265.872 52.5923 265.481 53.3754 265.091L53.5059 264.961C53.5059 264.831 53.5059 264.831 53.3754 264.831C53.2449 264.701 50.6348 263.01 48.8078 263.4C48.2858 263.53 47.7638 263.79 47.5028 264.311C47.1113 264.961 47.2418 265.351 47.5028 265.481C47.8943 265.612 48.6773 265.872 49.4603 265.872ZM52.9838 264.831C51.4178 265.481 48.4163 265.742 47.8943 264.961C47.8943 264.961 47.6333 264.701 48.0248 264.181C48.2858 263.791 48.6773 263.53 49.0688 263.53C50.2433 263.27 52.2008 264.311 52.9838 264.831Z" fill="#6346FA"/>
<path d="M79.4756 78.5648L78.9536 80.646L78.4316 82.7272C78.0401 84.158 77.6486 85.5888 77.1266 87.0196C76.3436 89.8813 75.4301 92.7429 74.386 95.6045C73.342 98.4662 72.4285 101.328 71.254 104.189C70.732 105.62 70.21 107.051 69.5575 108.482L68.905 110.173C68.7745 110.433 68.644 110.693 68.383 110.953C67.3389 112.254 65.1204 113.555 62.6409 114.595C60.1613 115.636 57.2903 116.416 54.4192 117.197C51.5482 117.847 48.5467 118.368 45.5451 118.888C42.5436 119.408 39.4115 119.668 36.41 120.058L36.2795 126.172C42.8046 126.822 49.1992 126.822 55.8548 126.172C59.1173 125.782 62.5104 125.261 65.9034 124.221C67.5999 123.701 69.2965 123.05 71.1235 122.14C72.82 121.229 74.6471 120.189 76.3436 118.498C77.1266 117.717 77.9096 116.677 78.6926 115.506C78.8231 115.246 78.9536 114.986 79.2146 114.595L79.4756 113.945L79.9976 113.165C80.6501 111.734 81.4332 110.303 82.0857 108.742C83.3907 105.75 84.6957 102.889 85.8702 99.7669C87.0447 96.7752 88.0888 93.6534 89.1328 90.6617C89.6548 89.1008 90.0463 87.5399 90.4378 85.979L91.0903 83.5076C91.2208 82.5971 91.4818 81.9467 91.6123 80.9062L79.4756 78.5648Z" fill="#F8C1B9"/>
<path d="M83.3908 65.6875C78.4317 66.9882 75.0386 87.0197 75.0386 87.0197L88.4803 96.1248C88.4803 96.1248 101.4 75.8333 97.6155 70.5002C93.8309 65.0371 90.4379 63.8664 83.3908 65.6875Z" fill="#6346FA"/>
<path opacity="0.2" d="M83.3908 65.6875C78.4317 66.9882 75.0386 87.0197 75.0386 87.0197L88.4803 96.1248C88.4803 96.1248 101.4 75.8333 97.6155 70.5002C93.8309 65.0371 90.4379 63.8664 83.3908 65.6875Z" fill="black"/>
<path d="M82.8686 72.9716L93.3088 75.443L94.3528 85.7189C91.6122 91.3121 88.4802 96.2549 88.4802 96.2549L80.2586 90.6617C80.6501 85.979 81.5636 76.2235 82.8686 72.9716Z" fill="#6346FA"/>
<path opacity="0.3" d="M82.8686 72.9716L93.3088 75.443L94.3528 85.7189C91.6122 91.3121 88.4802 96.2549 88.4802 96.2549L80.2586 90.6617C80.6501 85.979 81.5636 76.2235 82.8686 72.9716Z" fill="black"/>
<path d="M38.2371 120.058L29.7545 111.604L28.7105 123.57C28.7105 123.57 34.9746 127.863 39.4116 125.522L38.2371 120.058Z" fill="#F8C1B9"/>
<path d="M19.9669 110.303L19.5754 120.319L28.7105 123.57L29.885 111.604L19.9669 110.303Z" fill="#F8C1B9"/>
<path d="M80.2588 281.09H68.3831L64.5986 253.775H76.4742L80.2588 281.09Z" fill="#F8C1B9"/>
<path d="M67.6001 277.578L79.3453 271.335C79.7368 271.075 80.2588 271.205 80.5198 271.595L86.7839 280.18C87.4364 281.09 87.0449 282.391 86.1314 282.911C81.9553 284.993 79.8673 285.773 74.6472 288.635C71.5152 290.326 63.424 295.008 59.1175 297.35C54.8109 299.691 52.2009 295.529 53.7669 294.098C61.075 287.984 64.5986 283.041 66.0341 279.269C66.5561 278.489 67.0781 277.969 67.6001 277.578Z" fill="#263238"/>
<path d="M133.243 19.5113C133.504 32.5187 149.425 27.1857 151.252 42.1442C152.296 50.599 162.475 51.3795 164.302 59.0538C166.129 66.4681 158.821 71.8011 164.302 80.9063C171.61 93.2634 175.656 114.726 134.809 116.937C104.402 118.628 93.7005 87.8002 98.9206 68.9395C104.01 50.0787 107.012 47.087 101.27 41.884C95.5275 36.6811 86.5229 33.9495 89.394 18.2105C91.743 5.85349 97.2241 7.41438 97.2241 7.41438C97.3546 0.520447 132.46 -9.49527 133.243 19.5113Z" fill="#263238"/>
<path d="M37.715 241.027L45.6756 252.734L55.8547 246.751L47.8941 235.044L37.715 241.027Z" fill="#CE6F64"/>
<path d="M76.4741 253.775H64.5984L66.556 267.823H78.4316L76.4741 253.775Z" fill="#CE6F64"/>
<path d="M83.3907 65.6875C83.3907 65.6875 77.7791 67.6386 89.0023 137.098C108.186 137.098 127.892 137.098 137.288 137.098C136.505 117.587 136.505 105.49 145.901 65.2973C145.901 65.2973 135.852 63.086 125.412 62.5657C117.321 62.1755 110.666 61.9153 103.488 62.5657C93.9614 63.6063 83.3907 65.6875 83.3907 65.6875Z" fill="#6346FA"/>
<path opacity="0.2" d="M83.3907 65.6875C83.3907 65.6875 77.7791 67.6386 89.0023 137.098C108.186 137.098 127.892 137.098 137.288 137.098C136.505 117.587 136.505 105.49 145.901 65.2973C145.901 65.2973 135.852 63.086 125.412 62.5657C117.321 62.1755 110.666 61.9153 103.488 62.5657C93.9614 63.6063 83.3907 65.6875 83.3907 65.6875Z" fill="black"/>
<path d="M123.194 38.1117C121.758 45.1357 120.453 58.0131 125.412 62.6958C125.412 62.6958 123.455 69.8498 110.405 69.8498C97.7459 69.8498 103.488 62.6958 103.488 62.6958C111.318 60.8747 111.188 55.0214 109.752 49.5583L123.194 38.1117Z" fill="#F8C1B9"/>
<path d="M117.713 42.7944L109.752 49.5583C110.144 50.859 110.274 52.1597 110.405 53.4605C113.406 53.0703 117.582 49.6883 117.843 46.5666C117.974 45.0057 117.974 43.5748 117.713 42.7944Z" fill="#CE6F64"/>
<path d="M123.977 19.6412C125.282 31.3479 126.195 36.1606 121.367 43.1846C114.189 53.7207 99.4424 52.8101 94.6139 41.7538C90.3073 31.8682 88.7413 14.4382 99.3119 7.80446C109.752 1.30075 122.672 7.93453 123.977 19.6412Z" fill="#F8C1B9"/>
<path d="M124.107 26.5351C122.411 29.6569 97.0934 15.6089 99.9644 8.0646C102.835 0.520292 110.405 3.25185 110.405 3.25185C110.405 3.25185 123.846 6.24356 126.065 13.2676C128.283 20.1615 124.107 26.5351 124.107 26.5351Z" fill="#263238"/>
<path d="M128.936 27.8359C128.675 30.3073 127.37 32.3885 125.934 33.6892C123.585 35.6403 121.367 33.9494 120.975 31.0877C120.714 28.6163 121.497 24.584 124.238 23.6735C126.978 22.763 129.197 25.1043 128.936 27.8359Z" fill="#F8C1B9"/>
<path d="M89.0023 137.228C89.0023 137.228 13.9637 144.382 14.7467 180.543C15.5297 218.134 42.6741 251.954 42.6741 251.954L56.7683 243.889C56.7683 243.889 41.108 210.85 41.8911 188.347C42.5436 169.096 114.581 165.454 114.581 165.454L124.499 137.358H89.0023V137.228Z" fill="#6346FA"/>
<path opacity="0.6" d="M89.0023 137.228C89.0023 137.228 13.9637 144.382 14.7467 180.543C15.5297 218.134 42.6741 251.954 42.6741 251.954L56.7683 243.889C56.7683 243.889 41.108 210.85 41.8911 188.347C42.5436 169.096 114.581 165.454 114.581 165.454L124.499 137.358H89.0023V137.228Z" fill="#FAFAFA"/>
<path d="M62.9019 158.3L61.3358 173.649C50.8957 176.901 42.8046 181.454 41.891 187.567C40.1945 174.039 49.7212 165.975 62.9019 158.3Z" fill="#6346FA"/>
<path opacity="0.4" d="M62.9019 158.3L61.3358 173.649C50.8957 176.901 42.8046 181.454 41.891 187.567C40.1945 174.039 49.7212 165.975 62.9019 158.3Z" fill="#FAFAFA"/>
<path d="M101.791 137.228C101.791 137.228 50.3736 154.268 49.0686 175.34C46.7196 214.102 63.8153 265.221 63.8153 265.221H79.8671C79.8671 265.221 78.9536 231.272 76.996 196.152C74.5165 152.057 152.687 195.502 137.157 137.228H101.791Z" fill="#6346FA"/>
<path opacity="0.6" d="M101.791 137.228C101.791 137.228 50.3736 154.268 49.0686 175.34C46.7196 214.102 63.8153 265.221 63.8153 265.221H79.8671C79.8671 265.221 78.9536 231.272 76.996 196.152C74.5165 152.057 152.687 195.502 137.157 137.228H101.791Z" fill="#FAFAFA"/>
<path d="M107.012 26.0148C107.142 26.9254 106.881 27.8359 106.229 27.966C105.576 28.096 104.924 27.4457 104.793 26.4051C104.663 25.4945 104.924 24.584 105.576 24.4539C106.229 24.3239 106.881 24.9742 107.012 26.0148Z" fill="#263238"/>
<path d="M96.3104 27.8359C96.4409 28.7464 96.1799 29.6569 95.5274 29.787C94.8749 29.9171 94.2224 29.2667 94.0919 28.2261C93.9614 27.3156 94.2224 26.4051 94.8749 26.275C95.5274 26.275 96.1799 26.9254 96.3104 27.8359Z" fill="#263238"/>
<path d="M95.2664 26.4051L92.9173 26.1449C92.7868 26.1449 94.3528 27.7058 95.2664 26.4051Z" fill="#263238"/>
<path d="M99.4424 29.0065C99.4424 29.0065 98.5289 33.299 97.0934 35.6403C98.5289 36.5509 100.617 35.6403 100.617 35.6403L99.4424 29.0065Z" fill="#DE5753"/>
<path d="M106.098 38.1117C109.1 36.811 110.274 33.8193 110.274 33.6892C110.274 33.5591 110.274 33.5591 110.144 33.4291C110.013 33.4291 110.013 33.4291 109.883 33.5591C109.883 33.5591 108.708 36.5508 105.968 37.7215C105.837 37.7215 105.837 37.8516 105.837 37.9817C105.968 37.9817 105.968 38.1117 106.098 38.1117Z" fill="#263238"/>
<path d="M108.186 21.7224C108.317 21.7224 108.447 21.7224 108.447 21.5923C108.578 21.4622 108.578 21.2021 108.447 21.072C106.229 19.1209 103.749 19.7713 103.749 19.7713C103.618 19.7713 103.488 20.0314 103.488 20.1615C103.488 20.2916 103.749 20.4217 103.879 20.4217C104.01 20.4217 105.968 19.9014 107.925 21.5923C108.056 21.7224 108.056 21.7224 108.186 21.7224Z" fill="#263238"/>
<path d="M90.5683 23.6735C90.6988 23.6735 90.8293 23.5434 90.9598 23.4134C92.0039 21.072 94.0919 20.6818 94.2224 20.6818C94.3529 20.6818 94.4834 20.4216 94.4834 20.2916C94.4834 20.1615 94.2224 19.9013 94.0919 20.0314C93.9614 20.0314 91.4819 20.5517 90.3073 23.2833C90.1768 23.4134 90.3073 23.6735 90.4378 23.8036C90.4378 23.6735 90.4378 23.6735 90.5683 23.6735Z" fill="#263238"/>
<path d="M63.163 281.871C64.5986 281.871 66.4256 280.44 67.4696 279.529C67.4696 279.529 67.6001 279.399 67.4696 279.269C67.4696 279.139 67.3391 279.139 67.3391 279.139C66.8171 279.139 62.641 278.749 61.7275 279.92C61.597 280.18 61.4665 280.44 61.597 280.83C61.858 281.35 62.119 281.741 62.641 281.871C62.902 281.871 63.0325 281.871 63.163 281.871ZM66.9476 279.399C65.2511 280.83 63.685 281.611 62.902 281.351C62.5105 281.22 62.2495 280.96 62.119 280.57C61.9885 280.31 62.119 280.18 62.119 280.05C62.641 279.399 65.3816 279.399 66.9476 279.399Z" fill="#6346FA"/>
<path d="M67.4696 279.529C67.6001 279.529 67.6001 279.529 67.6001 279.399C67.6001 279.399 67.6001 279.269 67.6001 279.139C67.4696 279.009 65.9036 276.017 64.3375 275.627C63.946 275.497 63.5545 275.627 63.163 275.887C62.641 276.278 62.641 276.668 62.7715 276.928C63.0325 278.099 65.9036 279.399 67.4696 279.529ZM63.946 276.017C64.0765 276.017 64.0765 276.017 64.207 276.017C65.3816 276.278 66.5561 278.229 67.0781 279.009C65.7731 278.749 63.2935 277.708 63.0325 276.798C63.0325 276.668 63.0325 276.408 63.2935 276.148C63.5545 276.148 63.685 276.017 63.946 276.017Z" fill="#6346FA"/>
<path d="M105.837 24.4539L103.488 24.1938C103.488 24.1938 104.924 25.7547 105.837 24.4539Z" fill="#263238"/>
<path d="M137.941 134.367L138.332 138.659C138.463 139.049 138.071 139.309 137.549 139.309H88.7414C88.3499 139.309 87.9584 139.049 87.9584 138.789L87.5669 134.497C87.5669 134.237 87.9584 133.976 88.3499 133.976H137.158C137.549 133.976 137.941 134.107 137.941 134.367Z" fill="#263238"/>
<path d="M131.415 139.83H132.721C132.982 139.83 133.243 139.7 133.112 139.57L132.46 133.976C132.46 133.846 132.199 133.716 131.937 133.716H130.632C130.371 133.716 130.11 133.846 130.241 133.976L130.893 139.57C130.893 139.7 131.154 139.83 131.415 139.83Z" fill="#6346FA"/>
<path opacity="0.6" d="M131.415 139.83H132.721C132.982 139.83 133.243 139.7 133.112 139.57L132.46 133.976C132.46 133.846 132.199 133.716 131.937 133.716H130.632C130.371 133.716 130.11 133.846 130.241 133.976L130.893 139.57C130.893 139.7 131.154 139.83 131.415 139.83Z" fill="#FAFAFA"/>
<path d="M92.5258 139.83H93.8309C94.0919 139.83 94.3529 139.7 94.2224 139.57L93.5699 133.976C93.5699 133.846 93.3089 133.716 93.0478 133.716H91.7428C91.4818 133.716 91.2208 133.846 91.3513 133.976L92.0038 139.57C92.0038 139.7 92.2648 139.83 92.5258 139.83Z" fill="#6346FA"/>
<path opacity="0.6" d="M92.5258 139.83H93.8309C94.0919 139.83 94.3529 139.7 94.2224 139.57L93.5699 133.976C93.5699 133.846 93.3089 133.716 93.0478 133.716H91.7428C91.4818 133.716 91.2208 133.846 91.3513 133.976L92.0038 139.57C92.0038 139.7 92.2648 139.83 92.5258 139.83Z" fill="#FAFAFA"/>
<path d="M111.971 139.83H113.276C113.537 139.83 113.798 139.7 113.667 139.57L113.015 133.976C113.015 133.846 112.754 133.716 112.493 133.716H111.188C110.927 133.716 110.666 133.846 110.796 133.976L111.449 139.57C111.449 139.7 111.71 139.83 111.971 139.83Z" fill="#6346FA"/>
<path opacity="0.6" d="M111.971 139.83H113.276C113.537 139.83 113.798 139.7 113.667 139.57L113.015 133.976C113.015 133.846 112.754 133.716 112.493 133.716H111.188C110.927 133.716 110.666 133.846 110.796 133.976L111.449 139.57C111.449 139.7 111.71 139.83 111.971 139.83Z" fill="#FAFAFA"/>
<path d="M134.417 84.0279L140.681 89.361C139.376 96.385 138.463 102.238 137.941 107.441C136.766 102.238 133.765 88.0602 134.417 84.0279Z" fill="#6346FA"/>
<path opacity="0.3" d="M134.417 84.0279L140.681 89.361C139.376 96.385 138.463 102.238 137.941 107.441C136.766 102.238 133.765 88.0602 134.417 84.0279Z" fill="black"/>
<path d="M2.61006 103.929H87.3058L99.573 153.748H14.8773L2.61006 103.929Z" fill="#FAFAFA"/>
<path d="M45.5452 144.512L97.224 156.479L130.502 147.244L130.11 144.512H45.5452Z" fill="#FAFAFA"/>
<path d="M138.593 82.467C139.637 85.7189 140.681 89.2309 141.725 92.6128C142.769 95.9947 143.683 99.3767 144.596 102.759C145.51 106.141 146.293 109.522 146.945 112.904C147.206 114.595 147.598 116.156 147.728 117.717C147.989 119.148 147.989 121.099 147.989 120.969C147.859 121.359 147.467 122.4 146.554 123.31C145.64 124.221 144.596 125.261 143.291 126.172C140.812 127.993 137.81 129.684 134.678 131.245C131.546 132.806 128.414 134.237 125.151 135.537C121.889 136.968 118.496 138.139 115.233 139.44L116.669 145.423C120.453 144.773 123.977 143.992 127.631 143.082C131.285 142.171 134.808 141 138.332 139.7C141.856 138.399 145.379 136.838 148.903 134.627C150.599 133.586 152.426 132.285 154.123 130.725C155.819 129.164 157.516 127.082 158.56 124.091C158.821 123.31 158.951 122.53 159.082 121.749V121.099V120.579V119.798C159.082 118.758 159.082 117.717 159.082 116.677C158.951 114.595 158.69 112.774 158.429 110.823C157.907 107.051 157.124 103.409 156.341 99.7669C154.645 92.4827 152.687 85.4587 150.208 78.4347L138.593 82.467Z" fill="#F8C1B9"/>
<path d="M145.771 65.4273C150.599 66.8581 158.038 85.849 158.038 85.849L139.246 99.2466C139.246 99.2466 130.763 83.1174 132.851 76.8738C135.07 70.2401 140.29 63.7363 145.771 65.4273Z" fill="#6346FA"/>
<path opacity="0.2" d="M145.771 65.4273C150.599 66.8581 158.038 85.849 158.038 85.849L139.246 99.2466C139.246 99.2466 130.763 83.1174 132.851 76.8738C135.07 70.2401 140.29 63.7363 145.771 65.4273Z" fill="black"/>
<path d="M117.713 140.09L106.49 137.228L111.84 148.024C111.84 148.024 119.409 148.285 122.019 144.122L117.713 140.09Z" fill="#F8C1B9"/>
<path d="M97.3544 141.261L102.313 150.106L111.84 148.024L106.49 137.228L97.3544 141.261Z" fill="#F8C1B9"/>
<path d="M-4.57764e-05 103.929H84.6957L96.9629 153.748H12.2672L-4.57764e-05 103.929Z" fill="#263238"/>
<path d="M12.2671 153.748L12.6586 156.479H97.2239L96.9629 153.748H12.2671Z" fill="#263238"/>
<path d="M101.922 12.6172C90.5683 17.1698 89.5243 23.6735 90.1768 19.1209C91.0904 12.4871 96.5714 7.80445 100.486 6.24356C102.836 5.20297 106.881 10.6661 101.922 12.6172Z" fill="#263238"/>
<path d="M124.76 61.9153C124.629 62.9559 123.585 67.7687 114.189 69.5897C114.189 69.5897 116.93 72.5814 118.496 79.7355C118.496 79.7355 134.809 73.3619 129.85 62.9559C129.719 62.8258 129.589 62.6958 129.458 62.5657L124.89 61.6552C124.89 61.7853 124.76 61.7853 124.76 61.9153Z" fill="#6346FA"/>
<path opacity="0.6" d="M124.76 61.9153C124.629 62.9559 123.585 67.7687 114.189 69.5897C114.189 69.5897 116.93 72.5814 118.496 79.7355C118.496 79.7355 134.809 73.3619 129.85 62.9559C129.719 62.8258 129.589 62.6958 129.458 62.5657L124.89 61.6552C124.89 61.7853 124.76 61.7853 124.76 61.9153Z" fill="#FAFAFA"/>
<path d="M104.01 62.6957C102.836 63.8664 99.8341 67.8987 107.534 69.7198C107.534 69.7198 102.836 72.3212 101.27 79.4753C101.27 79.4753 89.6549 71.5408 100.226 62.8258C100.226 62.8258 100.226 62.8258 100.356 62.8258L103.749 62.4356C104.01 62.3055 104.01 62.5657 104.01 62.6957Z" fill="#6346FA"/>
<path opacity="0.6" d="M104.01 62.6957C102.836 63.8664 99.8341 67.8987 107.534 69.7198C107.534 69.7198 102.836 72.3212 101.27 79.4753C101.27 79.4753 89.6549 71.5408 100.226 62.8258C100.226 62.8258 100.226 62.8258 100.356 62.8258L103.749 62.4356C104.01 62.3055 104.01 62.5657 104.01 62.6957Z" fill="#FAFAFA"/>
</g>
<defs>
<clipPath id="clip0_111_1004">
<rect width="169" height="298" fill="white" transform="matrix(-1 0 0 1 169 0)"/>
</clipPath>
</defs>
</svg>
