<svg width="50" height="50" viewBox="0 0 50 50" fill="none" xmlns="http://www.w3.org/2000/svg">
<g clip-path="url(#clip0_524_702)">
<path d="M5.96998 13.7879V39.0891C5.96998 39.5203 6.32213 39.8721 6.75332 39.8721H12.9506V48.417C12.9506 48.8482 13.3028 49.2 13.7339 49.2H36.2605C36.6917 49.2 37.0439 48.8482 37.0439 48.417V39.8721H43.2412C43.6723 39.8721 44.0245 39.5203 44.0245 39.0891V13.7875L48.0201 16.1455L48.0201 16.1456L48.0247 16.1481C48.1382 16.2112 48.2686 16.251 48.4134 16.251C48.6975 16.251 48.9466 16.1074 49.0896 15.8736L49.0899 15.8731C49.3155 15.5017 49.1803 15.021 48.8186 14.8015L48.8169 14.8005L25.4056 0.905743L25.3994 0.902056L25.3929 0.898826C25.2758 0.840315 25.1478 0.8 25.0021 0.8C24.8757 0.8 24.7264 0.822191 24.5946 0.908127L1.19019 14.7988C1.18967 14.7991 1.18915 14.7994 1.18864 14.7997C1.00684 14.9041 0.875855 15.0744 0.82351 15.2819C0.769283 15.487 0.812851 15.6958 0.911583 15.8685L0.911508 15.8685L0.914578 15.8736C1.05852 16.109 1.31822 16.251 1.59077 16.251C1.70933 16.251 1.85769 16.2282 1.98839 16.143L5.96998 13.7879ZM25.3829 11.631L25.3811 11.63C25.266 11.5661 25.1259 11.5271 24.9924 11.5271C24.8555 11.5271 24.7252 11.5679 24.6133 11.63L24.6116 11.631L13.3452 18.0332C13.3449 18.0334 13.3446 18.0336 13.3443 18.0337C13.1053 18.1669 12.9506 18.4284 12.9506 18.7134V38.3061H7.53665V12.8515L24.9924 2.49569L42.4578 12.8516V38.3061H37.0439V18.7134C37.0439 18.4395 36.9003 18.1784 36.6524 18.035L36.651 18.0342L25.3829 11.631ZM35.4772 47.634H14.5173V19.1699L24.9924 13.2203L35.4772 19.1699V47.634Z" fill="#6346FA" stroke="#6346FA" stroke-width="0.4"/>
<path d="M22.1817 37.7522L22.181 37.7514C22.0266 37.5801 21.8161 37.4841 21.5905 37.4841C21.3884 37.4841 21.2047 37.5665 21.0645 37.6958C20.9026 37.8357 20.8142 38.0384 20.8016 38.2454C20.7887 38.4564 20.8537 38.6601 20.9987 38.8226C21.7033 39.6278 22.6414 40.2014 23.7089 40.4829C23.7093 40.483 23.7096 40.483 23.71 40.4831L24.2189 40.6232V41.3964C24.2189 41.8343 24.5691 42.2 25.0082 42.2C25.4494 42.2 25.7975 41.8321 25.7975 41.3863V40.6769L26.323 40.5443C26.3232 40.5442 26.3234 40.5442 26.3236 40.5441C27.9474 40.1438 29.1112 38.8618 29.1952 37.3329L29.1952 37.3328C29.2802 35.7779 28.2327 34.5081 26.4345 33.8251L26.4339 33.8249C25.1818 33.3539 24.0075 32.8427 23.5688 32.6429L23.5688 32.6429L23.5645 32.641L23.4783 32.6042L23.4054 32.5371L23.4055 32.537L23.4009 32.533C23.0745 32.2501 22.9263 31.8271 22.9867 31.3637C23.0714 30.798 23.7333 29.9264 25.0082 29.9264C26.1934 29.9264 27.1932 30.4793 27.5382 30.8236L27.5382 30.8237L27.5432 30.8285C27.6908 30.9659 27.878 31.033 28.0724 31.033C28.2724 31.033 28.4679 30.952 28.6113 30.8184L28.6119 30.8178C28.7738 30.6658 28.849 30.4633 28.8613 30.2617C28.8747 30.0417 28.7932 29.8396 28.6535 29.6835L28.6535 29.6835L28.652 29.6819C28.4791 29.4929 27.6105 28.7879 26.3342 28.4661C26.3341 28.4661 26.3339 28.4661 26.3338 28.466L25.8171 28.3337V27.6036C25.8171 27.1657 25.4669 26.8 25.0278 26.8C24.5888 26.8 24.2386 27.1657 24.2386 27.6036V28.333C24.2054 28.346 24.1674 28.3607 24.1266 28.3763C23.9917 28.4278 23.8334 28.4858 23.7233 28.5186L23.7242 28.5245C22.4668 28.9213 21.6098 29.8932 21.4318 31.1364C21.2639 32.2874 21.738 33.36 22.6776 33.9873L22.6775 33.9874L22.6847 33.9918C22.777 34.0479 22.9828 34.1435 23.2343 34.2541C23.4917 34.3673 23.812 34.5028 24.1447 34.6407C24.8099 34.9166 25.5286 35.204 25.8992 35.3458L25.9002 35.3461C26.5465 35.5895 27.0126 35.9066 27.2963 36.261C27.5762 36.6107 27.6831 37.0011 27.6102 37.4183L27.6102 37.4184C27.5252 37.9056 27.1729 38.3207 26.6766 38.6194C26.1814 38.9174 25.5664 39.0837 25.0082 39.0837C23.902 39.0837 22.9824 38.6496 22.1817 37.7522Z" fill="#6346FA" stroke="#6346FA" stroke-width="0.4"/>
<path d="M22.8 20.5C22.8 20.9097 23.1726 21.2 23.5714 21.2H26.4286C26.8274 21.2 27.2 20.9097 27.2 20.5C27.2 20.0903 26.8274 19.8 26.4286 19.8H23.5714C23.1726 19.8 22.8 20.0903 22.8 20.5Z" fill="#6346FA" stroke="#6346FA" stroke-width="0.4"/>
</g>
<defs>
<clipPath id="clip0_524_702">
<rect width="49.9696" height="50" fill="white"/>
</clipPath>
</defs>
</svg>
