<svg width="50" height="50" viewBox="0 0 50 50" fill="none" xmlns="http://www.w3.org/2000/svg">
    <mask id="rhx4797dga" style="mask-type:alpha" maskUnits="userSpaceOnUse" x="0" y="0" width="50" height="50">
        <path fill="#D9D9D9" d="M0 0h50v50H0z"/>
    </mask>
    <g clip-path="url(#fiddmkltsb)" fill="#6346FA" stroke="#6346FA" stroke-width=".4">
        <path d="M5.97 13.788v25.301c0 .431.352.783.783.783h6.198v8.545c0 .431.352.783.783.783H36.26a.785.785 0 0 0 .783-.783v-8.545h6.197a.785.785 0 0 0 .784-.783V13.788l3.995 2.357.005.003a.793.793 0 0 0 1.065-.274.785.785 0 0 0-.271-1.072l-.002-.002L25.406.906l-.007-.004L25.393.9a.861.861 0 0 0-.39-.099.74.74 0 0 0-.408.108L1.19 14.798l-.001.002a.768.768 0 0 0-.277 1.068l.003.006a.796.796 0 0 0 1.073.269l3.982-2.355zm19.413-2.157-.002-.001a.823.823 0 0 0-.389-.103.786.786 0 0 0-.379.103l-.001.001-11.267 6.402a.78.78 0 0 0-.394.68v19.593H7.537V12.852L24.992 2.496l17.466 10.356v25.454h-5.414V18.713a.783.783 0 0 0-.392-.678h-.001L25.383 11.63zm10.094 36.003h-20.96V19.17l10.475-5.95 10.485 5.95v28.464z"/>
        <path d="M22.182 37.752h-.001a.79.79 0 0 0-.59-.268.776.776 0 0 0-.527.212.787.787 0 0 0-.262.55.782.782 0 0 0 .197.577 5.412 5.412 0 0 0 2.71 1.66h.001l.509.14v.773c0 .438.35.804.79.804a.8.8 0 0 0 .788-.814v-.71l.526-.132c1.624-.4 2.788-1.682 2.872-3.211.085-1.555-.962-2.825-2.76-3.508h-.001a51.518 51.518 0 0 1-2.865-1.182l-.005-.002-.086-.037-.073-.067-.004-.004c-.326-.283-.475-.706-.414-1.17.084-.565.746-1.437 2.021-1.437 1.185 0 2.185.553 2.53.898l.005.004a.767.767 0 0 0 .53.205.8.8 0 0 0 .538-.215.819.819 0 0 0 .043-1.135l-.002-.001c-.173-.19-1.042-.894-2.318-1.216l-.517-.132v-.73a.798.798 0 0 0-.79-.804.798.798 0 0 0-.788.804v.729l-.112.043c-.135.052-.294.11-.404.143l.001.006c-1.257.396-2.114 1.368-2.292 2.611-.168 1.151.306 2.224 1.246 2.851l.007.005c.092.056.298.152.55.262a80.44 80.44 0 0 0 2.665 1.092c.647.244 1.113.56 1.396.915.28.35.387.74.314 1.157-.085.488-.437.903-.933 1.201a3.346 3.346 0 0 1-1.669.465c-1.106 0-2.026-.434-2.826-1.332zM22.8 20.5c0 .41.373.7.771.7h2.858c.398 0 .771-.29.771-.7s-.373-.7-.771-.7H23.57c-.398 0-.771.29-.771.7z"/>
    </g>
    <defs>
        <clipPath id="fiddmkltsb">
            <path fill="#fff" d="M0 0h49.97v50H0z"/>
        </clipPath>
    </defs>
</svg>
29c-1.515-.134-2.534-.594-3.61-1.091-1.371-.623-2.933-1.341-6.067-1.686a13.706 13.706 0 0 0-1.533-.086zm-16.428 0c-.515 0-1.039.029-1.543.086-3.124.345-4.686 1.053-6.058 1.686-1.076.488-2.095.957-3.609 1.091l-.352.029v4.175h19.2v-3.706l-.077-.105c-2.057-2.835-5.619-3.256-7.561-3.256zm8.228-22.206a2.55 2.55 0 0 0-1.98.967 2.594 2.594 0 0 0-.544 2.145c.21 1.025.314 2.04.314 3.045 0 2.73-.447 6.445-.885 10.035-.238 1.954-.467 3.793-.6 5.353l-.029.278.257.105a9.404 9.404 0 0 1 3.172 2.174l.276.297.276-.297c.59-.632 1.62-1.523 3.162-2.174l.257-.105-.028-.278c-.134-1.551-.362-3.39-.59-5.333v-.02c-.439-3.59-.887-7.306-.887-10.035 0-.996.105-2.02.315-3.035a2.6 2.6 0 0 0-.534-2.155 2.54 2.54 0 0 0-1.952-.967zm11.162 12.161c.276 1.044 1.152 2.806 3.867 2.806 1.571 0 2.685-.623 3.323-1.848.153-.288.277-.613.362-.958l.124-.479h-7.8l.124.48zm-29.914-.01c.457 1.753 1.828 2.806 3.685 2.806 1.677 0 2.857-.641 3.515-1.905.143-.278.257-.575.342-.89l.134-.49h-7.8l.124.48zm30.095-1.627h7.219l-3.533-7.804-3.686 7.804zm-29.943 0h7.22l-3.687-7.804-3.533 7.804zm18.6-11.673a2.419 2.419 0 0 0 2.41-2.423v-.028a2.419 2.419 0 0 0-2.41-2.423h-.028a2.413 2.413 0 0 0-2.41 2.423v.038a2.419 2.419 0 0 0 2.41 2.423h.018l.01-.01z"/>
        </mask>
        <path d="M24.533 46.99c-.857 0-1.666-.603-2.133-1.168l-.048-.057c-.266-.326-.571-.7-1.21-.7H1.573A.575.575 0 0 1 1 44.492V40.01c0-.316.257-.575.571-.575h2.505v-4.74c0-.316.257-.574.572-.574 1.81 0 2.8-.45 4.057-1.025 1.38-.632 3.095-1.407 6.41-1.78.6-.068 1.19-.097 1.761-.097 1.01 0 1.972.106 2.876.307l.42.096.037-.431c.143-1.494.343-3.18.562-4.97.429-3.562.877-7.24.877-9.892 0-.919-.096-1.867-.296-2.805-.19-.9-.028-1.848.448-2.653l.371-.622-.723.048A64.585 64.585 0 0 0 11.19 11.81l-.457.105 4.296 9.116a.561.561 0 0 1 .057.249c0 2.853-2.22 5.008-5.162 5.008-2.572 0-3.8-1.379-4.372-2.538a6.068 6.068 0 0 1-.61-2.47c0-.077.02-.163.048-.24l4.439-9.747a.585.585 0 0 1 .371-.316c.21-.058 5.295-1.466 11.905-1.849l.647-.038L22 8.535a3.552 3.552 0 0 1-.562-1.935v-.028c0-1.973 1.59-3.572 3.553-3.572h.028c1.962 0 3.552 1.6 3.552 3.572V6.6c0 .69-.2 1.35-.562 1.935l-.352.555.648.038c6.619.383 11.695 1.791 11.904 1.848a.61.61 0 0 1 .372.316l4.41 9.749a.671.671 0 0 1 .047.239c0 2.853-2.143 5.008-4.98 5.008-2.658 0-3.925-1.37-4.525-2.528a5.856 5.856 0 0 1-.638-2.48c0-.086.02-.172.057-.25l4.286-9.125-.457-.105a63.59 63.59 0 0 0-10.238-1.503l-.714-.048.361.622c.467.795.62 1.743.429 2.653a14.27 14.27 0 0 0-.295 2.805c0 2.662.447 6.34.876 9.901.219 1.791.419 3.476.562 4.97l.038.431.419-.096c.905-.21 1.867-.306 2.876-.306.572 0 1.162.038 1.762.096 3.305.364 5.029 1.149 6.41 1.78 1.257.575 2.247 1.025 4.057 1.025.314 0 .571.259.571.575v4.74h2.534c.314 0 .571.258.571.574v4.482a.575.575 0 0 1-.571.574H28.848c-.486 0-1.134.259-1.39.68A2.56 2.56 0 0 1 25.275 47h-.743v-.01zm-22.39-3.073h19.01c.857 0 1.676.45 2.142 1.177l.02.03.018.018c.362.412.858.7 1.21.7h.743a1.4 1.4 0 0 0 1.2-.68c.485-.815 1.562-1.245 2.371-1.245h19v-3.333H2.143v3.333zm31.076-11.539c-1.924 0-5.476.421-7.571 3.256l-.077.105v3.706h19.21V35.27l-.352-.029c-1.515-.134-2.534-.594-3.61-1.091-1.371-.623-2.933-1.341-6.067-1.686a13.706 13.706 0 0 0-1.533-.086zm-16.428 0c-.515 0-1.039.029-1.543.086-3.124.345-4.686 1.053-6.058 1.686-1.076.488-2.095.957-3.609 1.091l-.352.029v4.175h19.2v-3.706l-.077-.105c-2.057-2.835-5.619-3.256-7.561-3.256zm8.228-22.206a2.55 2.55 0 0 0-1.98.967 2.594 2.594 0 0 0-.544 2.145c.21 1.025.314 2.04.314 3.045 0 2.73-.447 6.445-.885 10.035-.238 1.954-.467 3.793-.6 5.353l-.029.278.257.105a9.404 9.404 0 0 1 3.172 2.174l.276.297.276-.297c.59-.632 1.62-1.523 3.162-2.174l.257-.105-.028-.278c-.134-1.551-.362-3.39-.59-5.333v-.02c-.439-3.59-.887-7.306-.887-10.035 0-.996.105-2.02.315-3.035a2.6 2.6 0 0 0-.534-2.155 2.54 2.54 0 0 0-1.952-.967zm11.162 12.161c.276 1.044 1.152 2.806 3.867 2.806 1.571 0 2.685-.623 3.323-1.848.153-.288.277-.613.362-.958l.124-.479h-7.8l.124.48zm-29.914-.01c.457 1.753 1.828 2.806 3.685 2.806 1.677 0 2.857-.641 3.515-1.905.143-.278.257-.575.342-.89l.134-.49h-7.8l.124.48zm30.095-1.627h7.219l-3.533-7.804-3.686 7.804zm-29.943 0h7.22l-3.687-7.804-3.533 7.804zm18.6-11.673a2.419 2.419 0 0 0 2.41-2.423v-.028a2.419 2.419 0 0 0-2.41-2.423h-.028a2.413 2.413 0 0 0-2.41 2.423v.038a2.419 2.419 0 0 0 2.41 2.423h.018l.01-.01z" fill="#6346FA"/>
        <path d="M24.533 46.99c-.857 0-1.666-.603-2.133-1.168l-.048-.057c-.266-.326-.571-.7-1.21-.7H1.573A.575.575 0 0 1 1 44.492V40.01c0-.316.257-.575.571-.575h2.505v-4.74c0-.316.257-.574.572-.574 1.81 0 2.8-.45 4.057-1.025 1.38-.632 3.095-1.407 6.41-1.78.6-.068 1.19-.097 1.761-.097 1.01 0 1.972.106 2.876.307l.42.096.037-.431c.143-1.494.343-3.18.562-4.97.429-3.562.877-7.24.877-9.892 0-.919-.096-1.867-.296-2.805-.19-.9-.028-1.848.448-2.653l.371-.622-.723.048A64.585 64.585 0 0 0 11.19 11.81l-.457.105 4.296 9.116a.561.561 0 0 1 .057.249c0 2.853-2.22 5.008-5.162 5.008-2.572 0-3.8-1.379-4.372-2.538a6.068 6.068 0 0 1-.61-2.47c0-.077.02-.163.048-.24l4.439-9.747a.585.585 0 0 1 .371-.316c.21-.058 5.295-1.466 11.905-1.849l.647-.038L22 8.535a3.552 3.552 0 0 1-.562-1.935v-.028c0-1.973 1.59-3.572 3.553-3.572h.028c1.962 0 3.552 1.6 3.552 3.572V6.6c0 .69-.2 1.35-.562 1.935l-.352.555.648.038c6.619.383 11.695 1.791 11.904 1.848a.61.61 0 0 1 .372.316l4.41 9.749a.671.671 0 0 1 .047.239c0 2.853-2.143 5.008-4.98 5.008-2.658 0-3.925-1.37-4.525-2.528a5.856 5.856 0 0 1-.638-2.48c0-.086.02-.172.057-.25l4.286-9.125-.457-.105a63.59 63.59 0 0 0-10.238-1.503l-.714-.048.361.622c.467.795.62 1.743.429 2.653a14.27 14.27 0 0 0-.295 2.805c0 2.662.447 6.34.876 9.901.219 1.791.419 3.476.562 4.97l.038.431.419-.096c.905-.21 1.867-.306 2.876-.306.572 0 1.162.038 1.762.096 3.305.364 5.029 1.149 6.41 1.78 1.257.575 2.247 1.025 4.057 1.025.314 0 .571.259.571.575v4.74h2.534c.314 0 .571.258.571.574v4.482a.575.575 0 0 1-.571.574H28.848c-.486 0-1.134.259-1.39.68A2.56 2.56 0 0 1 25.275 47h-.743v-.01zm-22.39-3.073h19.01c.857 0 1.676.45 2.142 1.177l.02.03.018.018c.362.412.858.7 1.21.7h.743a1.4 1.4 0 0 0 1.2-.68c.485-.815 1.562-1.245 2.371-1.245h19v-3.333H2.143v3.333zm31.076-11.539c-1.924 0-5.476.421-7.571 3.256l-.077.105v3.706h19.21V35.27l-.352-.029c-1.515-.134-2.534-.594-3.61-1.091-1.371-.623-2.933-1.341-6.067-1.686a13.706 13.706 0 0 0-1.533-.086zm-16.428 0c-.515 0-1.039.029-1.543.086-3.124.345-4.686 1.053-6.058 1.686-1.076.488-2.095.957-3.609 1.091l-.352.029v4.175h19.2v-3.706l-.077-.105c-2.057-2.835-5.619-3.256-7.561-3.256zm8.228-22.206a2.55 2.55 0 0 0-1.98.967 2.594 2.594 0 0 0-.544 2.145c.21 1.025.314 2.04.314 3.045 0 2.73-.447 6.445-.885 10.035-.238 1.954-.467 3.793-.6 5.353l-.029.278.257.105a9.404 9.404 0 0 1 3.172 2.174l.276.297.276-.297c.59-.632 1.62-1.523 3.162-2.174l.257-.105-.028-.278c-.134-1.551-.362-3.39-.59-5.333v-.02c-.439-3.59-.887-7.306-.887-10.035 0-.996.105-2.02.315-3.035a2.6 2.6 0 0 0-.534-2.155 2.54 2.54 0 0 0-1.952-.967zm11.162 12.161c.276 1.044 1.152 2.806 3.867 2.806 1.571 0 2.685-.623 3.323-1.848.153-.288.277-.613.362-.958l.124-.479h-7.8l.124.48zm-29.914-.01c.457 1.753 1.828 2.806 3.685 2.806 1.677 0 2.857-.641 3.515-1.905.143-.278.257-.575.342-.89l.134-.49h-7.8l.124.48zm30.095-1.627h7.219l-3.533-7.804-3.686 7.804zm-29.943 0h7.22l-3.687-7.804-3.533 7.804zm18.6-11.673a2.419 2.419 0 0 0 2.41-2.423v-.028a2.419 2.419 0 0 0-2.41-2.423h-.028a2.413 2.413 0 0 0-2.41 2.423v.038a2.419 2.419 0 0 0 2.41 2.423h.018l.01-.01z" stroke="#6346FA" stroke-width=".8" mask="url(#ro7dy6tvic)"/>
    </g>
    <defs>
        <clipPath id="ghe0dqpg4b">
            <path fill="#fff" transform="translate(0 2.227)" d="M0 0h50v45.547H0z"/>
        </clipPath>
    </defs>
</svg>
