<svg width="40" height="40" viewBox="0 0 40 40" fill="none" xmlns="http://www.w3.org/2000/svg">
    <path fill-rule="evenodd" clip-rule="evenodd" d="M0 20C0 8.954 8.954 0 20 0s20 8.954 20 20-8.954 20-20 20S0 31.046 0 20z" fill="#fff" fill-opacity=".05"/>
    <path fill-rule="evenodd" clip-rule="evenodd" d="M22.2 15.161c0-1.178-.992-2.137-2.213-2.137-1.22 0-2.214.959-2.214 2.137s.994 2.136 2.214 2.136c1.221 0 2.214-.959 2.214-2.136zm3.134 0c0 2.846-2.398 5.16-5.347 5.16-2.948 0-5.346-2.314-5.346-5.16S17.039 10 19.987 10c2.95 0 5.347 2.315 5.347 5.161zm-.066 8.132a10.22 10.22 0 0 1-3.105 1.241l2.99 2.886c.612.59.612 1.547 0 2.138-.612.59-1.604.59-2.215 0L20 26.723l-2.937 2.835a1.594 1.594 0 0 1-1.108.442c-.4 0-.801-.147-1.107-.442a1.476 1.476 0 0 1-.001-2.138l2.99-2.886a10.235 10.235 0 0 1-3.105-1.24 1.482 1.482 0 0 1-.49-2.086c.459-.708 1.426-.92 2.159-.475a6.996 6.996 0 0 0 7.198 0c.733-.446 1.7-.233 2.16.475.461.706.24 1.64-.491 2.085z" fill="#fff"/>
</svg>
