<svg width="50" height="46" viewBox="0 0 50 46" fill="none" xmlns="http://www.w3.org/2000/svg">
<mask id="path-1-outside-1_524_1672" maskUnits="userSpaceOnUse" x="0" y="0" width="50" height="46" fill="black">
<rect fill="white" width="50" height="46"/>
<path d="M24.5333 44.9904C23.6762 44.9904 22.8667 44.3872 22.4 43.8222L22.3524 43.7647C22.0857 43.4392 21.781 43.0657 21.1429 43.0657H1.57143C1.25714 43.0657 1 42.8072 1 42.4912V38.0098C1 37.6938 1.25714 37.4353 1.57143 37.4353H4.07619V32.6953C4.07619 32.3793 4.33333 32.1208 4.64762 32.1208C6.45714 32.1208 7.44762 31.6707 8.70476 31.0962C10.0857 30.4642 11.8 29.6886 15.1143 29.3151C15.7143 29.2481 16.3048 29.2194 16.8762 29.2194C17.8857 29.2194 18.8476 29.3247 19.7524 29.5258L20.1714 29.6215L20.2095 29.1906C20.3524 27.6968 20.5524 26.0115 20.7714 24.2209C21.2 20.6588 21.6476 16.9817 21.6476 14.3293C21.6476 13.41 21.5524 12.462 21.3524 11.5236C21.1619 10.6235 21.3238 9.67552 21.8 8.87116L22.1714 8.24875L21.4476 8.29663C16.8857 8.59347 13.0571 9.3691 11.1905 9.80958L10.7333 9.91491L15.0286 19.0309C15.0667 19.1075 15.0857 19.1937 15.0857 19.2799C15.0857 22.1334 12.8667 24.2879 9.92381 24.2879C7.35238 24.2879 6.12381 22.909 5.55238 21.7504C4.9619 20.5534 4.94286 19.4044 4.94286 19.2799C4.94286 19.2033 4.9619 19.1171 4.99048 19.0405L9.42857 9.29249C9.49524 9.13928 9.6381 9.02437 9.8 8.9765C10.0095 8.91904 15.0952 7.51143 21.7048 7.1284L22.3524 7.0901L22 6.53471C21.6286 5.96017 21.4381 5.28988 21.4381 4.60044V4.57171C21.4381 2.59913 23.0286 1 24.9905 1H25.019C26.981 1 28.5714 2.59913 28.5714 4.57171V4.60044C28.5714 5.28988 28.3714 5.9506 28.0095 6.53471L27.6571 7.0901L28.3048 7.1284C34.9238 7.51143 40 8.91904 40.2095 8.9765C40.3714 9.02437 40.5048 9.13928 40.581 9.29249L44.9905 19.0405C45.019 19.1171 45.0381 19.1937 45.0381 19.2799C45.0381 22.1334 42.8952 24.2879 40.0571 24.2879C37.4 24.2879 36.1333 22.9186 35.5333 21.76C34.9143 20.563 34.8952 19.4044 34.8952 19.2799C34.8952 19.1937 34.9143 19.1075 34.9524 19.0309L39.2381 9.90533L38.781 9.8C36.9143 9.35952 33.0952 8.5839 28.5429 8.29663L27.8286 8.24875L28.1905 8.87116C28.6571 9.66594 28.8095 10.6139 28.619 11.5236C28.4286 12.4716 28.3238 13.41 28.3238 14.3293C28.3238 16.9913 28.7714 20.6683 29.2 24.2305C29.419 26.0211 29.619 27.7064 29.7619 29.2002L29.8 29.6311L30.219 29.5354C31.1238 29.3247 32.0857 29.2289 33.0952 29.2289C33.6667 29.2289 34.2571 29.2672 34.8571 29.3247C38.1619 29.6886 39.8857 30.4738 41.2667 31.1058C42.5238 31.6803 43.5143 32.1304 45.3238 32.1304C45.6381 32.1304 45.8952 32.3889 45.8952 32.7049V37.4448H48.4286C48.7429 37.4448 49 37.7034 49 38.0194V42.5008C49 42.8168 48.7429 43.0753 48.4286 43.0753H28.8476C28.3619 43.0753 27.7143 43.3338 27.4571 43.7552C27 44.5212 26.1619 45 25.2762 45H24.5333V44.9904ZM2.14286 41.9166H21.1524C22.0095 41.9166 22.8286 42.3667 23.2952 43.0945L23.3143 43.1232L23.3333 43.1423C23.6952 43.5541 24.1905 43.8413 24.5429 43.8413H25.2857C25.7714 43.8413 26.2381 43.5828 26.4857 43.1615C26.9714 42.3475 28.0476 41.9166 28.8571 41.9166H47.8571V38.5843H2.14286V41.9166ZM33.219 30.378C31.2952 30.378 27.7429 30.7993 25.6476 33.6337L25.5714 33.7391V37.4448H44.781V33.2699L44.4286 33.2411C42.9143 33.1071 41.8952 32.6474 40.819 32.1495C39.4476 31.5271 37.8857 30.8089 34.7524 30.4642C34.2476 30.4067 33.7238 30.378 33.219 30.378ZM16.7905 30.378C16.2762 30.378 15.7524 30.4067 15.2476 30.4642C12.1238 30.8089 10.5619 31.5175 9.19048 32.1495C8.11429 32.6379 7.09524 33.1071 5.58095 33.2411L5.22857 33.2699V37.4448H24.4286V33.7391L24.3524 33.6337C22.2952 30.7993 18.7333 30.378 16.7905 30.378ZM25.019 8.17214C24.2571 8.17214 23.5333 8.52644 23.0381 9.13928C22.5429 9.75212 22.3429 10.5373 22.4952 11.2842C22.7048 12.3088 22.8095 13.3238 22.8095 14.3293C22.8095 17.0583 22.3619 20.7737 21.9238 24.3645C21.6857 26.318 21.4571 28.1565 21.3238 29.7173L21.2952 29.995L21.5524 30.1003C23.0952 30.7515 24.1238 31.642 24.7238 32.274L25 32.5708L25.2762 32.274C25.8667 31.642 26.8952 30.7515 28.4381 30.1003L28.6952 29.995L28.6667 29.7173C28.5333 28.166 28.3048 26.3275 28.0762 24.3837V24.3645C27.6381 20.7737 27.1905 17.0583 27.1905 14.3293C27.1905 13.3334 27.2952 12.3088 27.5048 11.2938C27.6571 10.5373 27.4667 9.75212 26.9714 9.13928C26.4857 8.53602 25.781 8.18172 25.019 8.17214ZM36.181 20.3332C36.4571 21.3769 37.3333 23.1388 40.0476 23.1388C41.619 23.1388 42.7333 22.5164 43.3714 21.2907C43.5238 21.0035 43.6476 20.6779 43.7333 20.3332L43.8571 19.8544H36.0571L36.181 20.3332ZM6.26667 20.3236C6.72381 22.076 8.09524 23.1293 9.95238 23.1293C11.6286 23.1293 12.8095 22.4877 13.4667 21.2237C13.6095 20.946 13.7238 20.6492 13.8095 20.3332L13.9429 19.8448H6.14286L6.26667 20.3236ZM36.3619 18.6958H43.581L40.0476 10.8916L36.3619 18.6958ZM6.41905 18.6958H13.6381L9.95238 10.8916L6.41905 18.6958ZM25.019 7.02307C26.3429 7.02307 27.4286 5.94102 27.4286 4.60044V4.57171C27.4286 3.2407 26.3524 2.14908 25.019 2.14908H24.9905C23.6571 2.14908 22.581 3.23112 22.581 4.57171V4.61001C22.581 5.94102 23.6571 7.03264 24.9905 7.03264H25.0095L25.019 7.02307Z"/>
</mask>
<path d="M24.5333 44.9904C23.6762 44.9904 22.8667 44.3872 22.4 43.8222L22.3524 43.7647C22.0857 43.4392 21.781 43.0657 21.1429 43.0657H1.57143C1.25714 43.0657 1 42.8072 1 42.4912V38.0098C1 37.6938 1.25714 37.4353 1.57143 37.4353H4.07619V32.6953C4.07619 32.3793 4.33333 32.1208 4.64762 32.1208C6.45714 32.1208 7.44762 31.6707 8.70476 31.0962C10.0857 30.4642 11.8 29.6886 15.1143 29.3151C15.7143 29.2481 16.3048 29.2194 16.8762 29.2194C17.8857 29.2194 18.8476 29.3247 19.7524 29.5258L20.1714 29.6215L20.2095 29.1906C20.3524 27.6968 20.5524 26.0115 20.7714 24.2209C21.2 20.6588 21.6476 16.9817 21.6476 14.3293C21.6476 13.41 21.5524 12.462 21.3524 11.5236C21.1619 10.6235 21.3238 9.67552 21.8 8.87116L22.1714 8.24875L21.4476 8.29663C16.8857 8.59347 13.0571 9.3691 11.1905 9.80958L10.7333 9.91491L15.0286 19.0309C15.0667 19.1075 15.0857 19.1937 15.0857 19.2799C15.0857 22.1334 12.8667 24.2879 9.92381 24.2879C7.35238 24.2879 6.12381 22.909 5.55238 21.7504C4.9619 20.5534 4.94286 19.4044 4.94286 19.2799C4.94286 19.2033 4.9619 19.1171 4.99048 19.0405L9.42857 9.29249C9.49524 9.13928 9.6381 9.02437 9.8 8.9765C10.0095 8.91904 15.0952 7.51143 21.7048 7.1284L22.3524 7.0901L22 6.53471C21.6286 5.96017 21.4381 5.28988 21.4381 4.60044V4.57171C21.4381 2.59913 23.0286 1 24.9905 1H25.019C26.981 1 28.5714 2.59913 28.5714 4.57171V4.60044C28.5714 5.28988 28.3714 5.9506 28.0095 6.53471L27.6571 7.0901L28.3048 7.1284C34.9238 7.51143 40 8.91904 40.2095 8.9765C40.3714 9.02437 40.5048 9.13928 40.581 9.29249L44.9905 19.0405C45.019 19.1171 45.0381 19.1937 45.0381 19.2799C45.0381 22.1334 42.8952 24.2879 40.0571 24.2879C37.4 24.2879 36.1333 22.9186 35.5333 21.76C34.9143 20.563 34.8952 19.4044 34.8952 19.2799C34.8952 19.1937 34.9143 19.1075 34.9524 19.0309L39.2381 9.90533L38.781 9.8C36.9143 9.35952 33.0952 8.5839 28.5429 8.29663L27.8286 8.24875L28.1905 8.87116C28.6571 9.66594 28.8095 10.6139 28.619 11.5236C28.4286 12.4716 28.3238 13.41 28.3238 14.3293C28.3238 16.9913 28.7714 20.6683 29.2 24.2305C29.419 26.0211 29.619 27.7064 29.7619 29.2002L29.8 29.6311L30.219 29.5354C31.1238 29.3247 32.0857 29.2289 33.0952 29.2289C33.6667 29.2289 34.2571 29.2672 34.8571 29.3247C38.1619 29.6886 39.8857 30.4738 41.2667 31.1058C42.5238 31.6803 43.5143 32.1304 45.3238 32.1304C45.6381 32.1304 45.8952 32.3889 45.8952 32.7049V37.4448H48.4286C48.7429 37.4448 49 37.7034 49 38.0194V42.5008C49 42.8168 48.7429 43.0753 48.4286 43.0753H28.8476C28.3619 43.0753 27.7143 43.3338 27.4571 43.7552C27 44.5212 26.1619 45 25.2762 45H24.5333V44.9904ZM2.14286 41.9166H21.1524C22.0095 41.9166 22.8286 42.3667 23.2952 43.0945L23.3143 43.1232L23.3333 43.1423C23.6952 43.5541 24.1905 43.8413 24.5429 43.8413H25.2857C25.7714 43.8413 26.2381 43.5828 26.4857 43.1615C26.9714 42.3475 28.0476 41.9166 28.8571 41.9166H47.8571V38.5843H2.14286V41.9166ZM33.219 30.378C31.2952 30.378 27.7429 30.7993 25.6476 33.6337L25.5714 33.7391V37.4448H44.781V33.2699L44.4286 33.2411C42.9143 33.1071 41.8952 32.6474 40.819 32.1495C39.4476 31.5271 37.8857 30.8089 34.7524 30.4642C34.2476 30.4067 33.7238 30.378 33.219 30.378ZM16.7905 30.378C16.2762 30.378 15.7524 30.4067 15.2476 30.4642C12.1238 30.8089 10.5619 31.5175 9.19048 32.1495C8.11429 32.6379 7.09524 33.1071 5.58095 33.2411L5.22857 33.2699V37.4448H24.4286V33.7391L24.3524 33.6337C22.2952 30.7993 18.7333 30.378 16.7905 30.378ZM25.019 8.17214C24.2571 8.17214 23.5333 8.52644 23.0381 9.13928C22.5429 9.75212 22.3429 10.5373 22.4952 11.2842C22.7048 12.3088 22.8095 13.3238 22.8095 14.3293C22.8095 17.0583 22.3619 20.7737 21.9238 24.3645C21.6857 26.318 21.4571 28.1565 21.3238 29.7173L21.2952 29.995L21.5524 30.1003C23.0952 30.7515 24.1238 31.642 24.7238 32.274L25 32.5708L25.2762 32.274C25.8667 31.642 26.8952 30.7515 28.4381 30.1003L28.6952 29.995L28.6667 29.7173C28.5333 28.166 28.3048 26.3275 28.0762 24.3837V24.3645C27.6381 20.7737 27.1905 17.0583 27.1905 14.3293C27.1905 13.3334 27.2952 12.3088 27.5048 11.2938C27.6571 10.5373 27.4667 9.75212 26.9714 9.13928C26.4857 8.53602 25.781 8.18172 25.019 8.17214ZM36.181 20.3332C36.4571 21.3769 37.3333 23.1388 40.0476 23.1388C41.619 23.1388 42.7333 22.5164 43.3714 21.2907C43.5238 21.0035 43.6476 20.6779 43.7333 20.3332L43.8571 19.8544H36.0571L36.181 20.3332ZM6.26667 20.3236C6.72381 22.076 8.09524 23.1293 9.95238 23.1293C11.6286 23.1293 12.8095 22.4877 13.4667 21.2237C13.6095 20.946 13.7238 20.6492 13.8095 20.3332L13.9429 19.8448H6.14286L6.26667 20.3236ZM36.3619 18.6958H43.581L40.0476 10.8916L36.3619 18.6958ZM6.41905 18.6958H13.6381L9.95238 10.8916L6.41905 18.6958ZM25.019 7.02307C26.3429 7.02307 27.4286 5.94102 27.4286 4.60044V4.57171C27.4286 3.2407 26.3524 2.14908 25.019 2.14908H24.9905C23.6571 2.14908 22.581 3.23112 22.581 4.57171V4.61001C22.581 5.94102 23.6571 7.03264 24.9905 7.03264H25.0095L25.019 7.02307Z" fill="#6346FA"/>
<path d="M24.5333 44.9904C23.6762 44.9904 22.8667 44.3872 22.4 43.8222L22.3524 43.7647C22.0857 43.4392 21.781 43.0657 21.1429 43.0657H1.57143C1.25714 43.0657 1 42.8072 1 42.4912V38.0098C1 37.6938 1.25714 37.4353 1.57143 37.4353H4.07619V32.6953C4.07619 32.3793 4.33333 32.1208 4.64762 32.1208C6.45714 32.1208 7.44762 31.6707 8.70476 31.0962C10.0857 30.4642 11.8 29.6886 15.1143 29.3151C15.7143 29.2481 16.3048 29.2194 16.8762 29.2194C17.8857 29.2194 18.8476 29.3247 19.7524 29.5258L20.1714 29.6215L20.2095 29.1906C20.3524 27.6968 20.5524 26.0115 20.7714 24.2209C21.2 20.6588 21.6476 16.9817 21.6476 14.3293C21.6476 13.41 21.5524 12.462 21.3524 11.5236C21.1619 10.6235 21.3238 9.67552 21.8 8.87116L22.1714 8.24875L21.4476 8.29663C16.8857 8.59347 13.0571 9.3691 11.1905 9.80958L10.7333 9.91491L15.0286 19.0309C15.0667 19.1075 15.0857 19.1937 15.0857 19.2799C15.0857 22.1334 12.8667 24.2879 9.92381 24.2879C7.35238 24.2879 6.12381 22.909 5.55238 21.7504C4.9619 20.5534 4.94286 19.4044 4.94286 19.2799C4.94286 19.2033 4.9619 19.1171 4.99048 19.0405L9.42857 9.29249C9.49524 9.13928 9.6381 9.02437 9.8 8.9765C10.0095 8.91904 15.0952 7.51143 21.7048 7.1284L22.3524 7.0901L22 6.53471C21.6286 5.96017 21.4381 5.28988 21.4381 4.60044V4.57171C21.4381 2.59913 23.0286 1 24.9905 1H25.019C26.981 1 28.5714 2.59913 28.5714 4.57171V4.60044C28.5714 5.28988 28.3714 5.9506 28.0095 6.53471L27.6571 7.0901L28.3048 7.1284C34.9238 7.51143 40 8.91904 40.2095 8.9765C40.3714 9.02437 40.5048 9.13928 40.581 9.29249L44.9905 19.0405C45.019 19.1171 45.0381 19.1937 45.0381 19.2799C45.0381 22.1334 42.8952 24.2879 40.0571 24.2879C37.4 24.2879 36.1333 22.9186 35.5333 21.76C34.9143 20.563 34.8952 19.4044 34.8952 19.2799C34.8952 19.1937 34.9143 19.1075 34.9524 19.0309L39.2381 9.90533L38.781 9.8C36.9143 9.35952 33.0952 8.5839 28.5429 8.29663L27.8286 8.24875L28.1905 8.87116C28.6571 9.66594 28.8095 10.6139 28.619 11.5236C28.4286 12.4716 28.3238 13.41 28.3238 14.3293C28.3238 16.9913 28.7714 20.6683 29.2 24.2305C29.419 26.0211 29.619 27.7064 29.7619 29.2002L29.8 29.6311L30.219 29.5354C31.1238 29.3247 32.0857 29.2289 33.0952 29.2289C33.6667 29.2289 34.2571 29.2672 34.8571 29.3247C38.1619 29.6886 39.8857 30.4738 41.2667 31.1058C42.5238 31.6803 43.5143 32.1304 45.3238 32.1304C45.6381 32.1304 45.8952 32.3889 45.8952 32.7049V37.4448H48.4286C48.7429 37.4448 49 37.7034 49 38.0194V42.5008C49 42.8168 48.7429 43.0753 48.4286 43.0753H28.8476C28.3619 43.0753 27.7143 43.3338 27.4571 43.7552C27 44.5212 26.1619 45 25.2762 45H24.5333V44.9904ZM2.14286 41.9166H21.1524C22.0095 41.9166 22.8286 42.3667 23.2952 43.0945L23.3143 43.1232L23.3333 43.1423C23.6952 43.5541 24.1905 43.8413 24.5429 43.8413H25.2857C25.7714 43.8413 26.2381 43.5828 26.4857 43.1615C26.9714 42.3475 28.0476 41.9166 28.8571 41.9166H47.8571V38.5843H2.14286V41.9166ZM33.219 30.378C31.2952 30.378 27.7429 30.7993 25.6476 33.6337L25.5714 33.7391V37.4448H44.781V33.2699L44.4286 33.2411C42.9143 33.1071 41.8952 32.6474 40.819 32.1495C39.4476 31.5271 37.8857 30.8089 34.7524 30.4642C34.2476 30.4067 33.7238 30.378 33.219 30.378ZM16.7905 30.378C16.2762 30.378 15.7524 30.4067 15.2476 30.4642C12.1238 30.8089 10.5619 31.5175 9.19048 32.1495C8.11429 32.6379 7.09524 33.1071 5.58095 33.2411L5.22857 33.2699V37.4448H24.4286V33.7391L24.3524 33.6337C22.2952 30.7993 18.7333 30.378 16.7905 30.378ZM25.019 8.17214C24.2571 8.17214 23.5333 8.52644 23.0381 9.13928C22.5429 9.75212 22.3429 10.5373 22.4952 11.2842C22.7048 12.3088 22.8095 13.3238 22.8095 14.3293C22.8095 17.0583 22.3619 20.7737 21.9238 24.3645C21.6857 26.318 21.4571 28.1565 21.3238 29.7173L21.2952 29.995L21.5524 30.1003C23.0952 30.7515 24.1238 31.642 24.7238 32.274L25 32.5708L25.2762 32.274C25.8667 31.642 26.8952 30.7515 28.4381 30.1003L28.6952 29.995L28.6667 29.7173C28.5333 28.166 28.3048 26.3275 28.0762 24.3837V24.3645C27.6381 20.7737 27.1905 17.0583 27.1905 14.3293C27.1905 13.3334 27.2952 12.3088 27.5048 11.2938C27.6571 10.5373 27.4667 9.75212 26.9714 9.13928C26.4857 8.53602 25.781 8.18172 25.019 8.17214ZM36.181 20.3332C36.4571 21.3769 37.3333 23.1388 40.0476 23.1388C41.619 23.1388 42.7333 22.5164 43.3714 21.2907C43.5238 21.0035 43.6476 20.6779 43.7333 20.3332L43.8571 19.8544H36.0571L36.181 20.3332ZM6.26667 20.3236C6.72381 22.076 8.09524 23.1293 9.95238 23.1293C11.6286 23.1293 12.8095 22.4877 13.4667 21.2237C13.6095 20.946 13.7238 20.6492 13.8095 20.3332L13.9429 19.8448H6.14286L6.26667 20.3236ZM36.3619 18.6958H43.581L40.0476 10.8916L36.3619 18.6958ZM6.41905 18.6958H13.6381L9.95238 10.8916L6.41905 18.6958ZM25.019 7.02307C26.3429 7.02307 27.4286 5.94102 27.4286 4.60044V4.57171C27.4286 3.2407 26.3524 2.14908 25.019 2.14908H24.9905C23.6571 2.14908 22.581 3.23112 22.581 4.57171V4.61001C22.581 5.94102 23.6571 7.03264 24.9905 7.03264H25.0095L25.019 7.02307Z" stroke="#6346FA" stroke-width="0.8" mask="url(#path-1-outside-1_524_1672)"/>
</svg>
